# xmcd
#
# Track frame offsets:
#        150
#        20872
#        78802
#        124887
#        158635
#        209760
#
# Disc length: 3146 seconds
#
# Revision: 0
# Processed by: cddbd v1.5.1PL2 Copyright (c) Steve Scherf et al.
# Submitted via: ExactAudioCopy v0.95b4
#
DISCID=4c0c4806
DTITLE=JIMI HENDRIX - STONE FREE
DYEAR=1969
DGENRE=rock
TTITLE0=LOVER MAN
TTITLE1=STONE FREE
TTITLE2=GETTIN' MY HEART BACK TOGETHER AGAIN
TTITLE3=I DON'T LIVE TODAY
TTITLE4=REDHOUSE
TTITLE5=FOXY LADY
EXTD=
EXTT0=
EXTT1=
EXTT2=
EXTT3=
EXTT4=
EXTT5=
PLAYORDER=
